<svg width="20" height="20" viewBox="0 0 20 20" fill="none" xmlns="http://www.w3.org/2000/svg">
<path d="M7.77778 2C4.10378 2 1.11111 4.99266 1.11111 8.66667C1.11111 12.3407 4.10378 15.3333 7.77778 15.3333C9.37545 15.3333 10.8427 14.766 11.9926 13.8242L15.9731 17.8047C16.0345 17.8687 16.1081 17.9198 16.1895 17.9549C16.2709 17.9901 16.3586 18.0087 16.4473 18.0096C16.536 18.0105 16.6239 17.9937 16.7061 17.9602C16.7882 17.9267 16.8628 17.8771 16.9255 17.8144C16.9882 17.7517 17.0378 17.6771 17.0713 17.5949C17.1048 17.5128 17.1216 17.4248 17.1207 17.3361C17.1198 17.2474 17.1012 17.1598 17.0661 17.0784C17.0309 16.997 16.9798 16.9234 16.9158 16.862L12.9353 12.8815C13.8771 11.7316 14.4444 10.2643 14.4444 8.66667C14.4444 4.99266 11.4518 2 7.77778 2ZM7.77778 3.33333C10.7312 3.33333 13.1111 5.71325 13.1111 8.66667C13.1111 11.6201 10.7312 14 7.77778 14C4.82437 14 2.44445 11.6201 2.44445 8.66667C2.44445 5.71325 4.82437 3.33333 7.77778 3.33333Z" fill="#F2F2F2"/>
</svg>
